:SAMPLES-PER-SECOND 30
:FULLY-SPECIFIED
:DEGREES
416
root  -25.0127 39.7111 -4.48316 -1.73132 -37.2798 -0.677006
RightUpLeg  -5.94091 -13.1315 -8.59964
RightLeg  13.1898 5.95703 3.27416
RightFoot  -4.25932 -0.336651 4.96802
RightToes  -2.21189e-009 0 -3.6325e-017
Spine  6.54785 -2.16598 10.9379
Spine1  6.84386 -0.803219 -2.08743
HEad  -23.1706 8.53746 -13.4668
LeftShoulder1  -0.127931 3.86189 -29.587
LeftArm  1.21845 -2.36276 -41.3038
LeftForeArm  13.216 -17.2543 -5.88702
LeftHand  -0.0611601 4.16162 3.89343
RightShoulder  -0.34591 -4.56167 25.6134
RightArm  18.9123 -2.524 43.0369
RightForeArm  5.2555 11.8519 7.54695
RightHand  -0.218722 3.33458 -3.15766
LeftUpLeg  -8.95618 -0.682847 1.52726
LeftLeg  41.3432 -2.14996 -1.66586
LeftFoot  -8.01342 0.114673 -2.26504
LeftToes  -4.03379e-008 1.61488e-010 -5.81581e-011
417
root  -25.5196 39.8915 -4.45855 -1.96784 -33.0093 0.252753
RightUpLeg  -4.12667 -13.5207 -9.38685
RightLeg  11.9979 2.35942 2.71374
RightFoot  -4.55509 -0.320147 4.87261
RightToes  -2.21189e-009 0 -3.6325e-017
Spine  6.81373 -2.03491 10.3126
Spine1  6.71142 -0.76546 -2.13758
HEad  -23.509 9.02481 -14.0849
LeftShoulder1  -0.147359 3.91714 -29.5042
LeftArm  0.992175 -1.06062 -40.2064
LeftForeArm  10.5747 -19.4718 -5.0248
LeftHand  -0.0813646 3.70491 4.54787
RightShoulder  -0.29092 -4.40823 24.974
RightArm  21.3353 -1.80814 42.5571
RightForeArm  4.85554 13.0361 7.53064
RightHand  -0.235381 3.48248 -3.29763
LeftUpLeg  -11.2313 3.5594 1.15612
LeftLeg  40.3007 -0.791327 -0.339343
LeftFoot  -8.15381 0.0905397 -1.52988
LeftToes  -4.03379e-008 1.61488e-010 -5.81581e-011
418
root  -25.9554 40.0052 -4.36127 -2.15296 -28.5138 0.894062
RightUpLeg  -2.2413 -14.0888 -10.1903
RightLeg  11.2814 -1.2424 2.44608
RightFoot  -5.08573 -0.310732 5.04892
RightToes  -2.21189e-009 0 -3.6325e-017
Spine  7.04878 -2.00837 10.3612
Spine1  6.68415 -0.654474 -2.68355
HEad  -23.4383 8.63458 -14.4027
LeftShoulder1  -0.118184 3.83779 -29.2606
LeftArm  0.686327 -0.2228 -39.6413
LeftForeArm  9.10138 -20.9689 -4.65666
LeftHand  -0.0635772 4.42624 5.32113
RightShoulder  -0.282753 -4.3889 24.7197
RightArm  22.9484 -1.59869 41.7368
RightForeArm  2.56137 14.1449 7.36523
RightHand  -0.375851 3.78508 -5.02319
LeftUpLeg  -12.9176 7.33163 0.301771
LeftLeg  37.6121 -1.42378 -0.808719
LeftFoot  -8.79156 0.110076 -2.55554
LeftToes  -4.03379e-008 1.61488e-010 -5.81581e-011
419
root  -26.3472 40.0944 -4.21066 -1.97542 -23.813 1.40944
RightUpLeg  -0.517028 -14.5761 -10.8828
RightLeg  10.4785 -5.10201 2.28412
RightFoot  -5.55928 -0.320577 5.60181
RightToes  -2.21189e-009 0 -3.6325e-017
Spine  6.97491 -1.88337 10.088
Spine1  6.52459 -0.659437 -2.60711
HEad  -23.3033 8.81319 -14.0867
LeftShoulder1  -0.111786 3.81697 -29.491
LeftArm  -1.05694 0.309013 -39.7659
LeftForeArm  9.93293 -21.3279 -4.5121
LeftHand  -0.0650359 4.46204 5.67254
RightShoulder  -0.259322 -4.32727 24.204
RightArm  23.1683 -2.02843 40.5891
RightForeArm  1.01865 15.0302 6.97568
RightHand  -0.288746 3.81767 -3.90336
LeftUpLeg  -14.5308 10.3847 -1.17053
LeftLeg  33.6697 -2.74144 -1.60433
LeftFoot  -8.89695 0.111135 -2.70322
LeftToes  -4.03379e-008 1.61488e-010 -5.81581e-011
420
root  -26.7104 40.1631 -3.99363 -1.91285 -19.8561 1.9337
RightUpLeg  1.26788 -14.9458 -11.5272
RightLeg  9.65915 -8.43393 2.30107
RightFoot  -6.1663 -0.315669 6.04347
RightToes  -2.21189e-009 0 -3.6325e-017
Spine  7.08134 -1.59481 9.4129
Spine1  6.23059 -0.505329 -2.47615
HEad  -22.7383 9.21961 -13.685
LeftShoulder1  -0.180077 4.00394 -29.8854
LeftArm  -2.04699 1.02269 -39.9503
LeftForeArm  9.5108 -21.2184 -4.5175
LeftHand  -0.0934526 4.09339 6.92357
RightShoulder  -0.232732 -4.23866 24.2612
RightArm  24.0052 -2.1706 39.0951
RightForeArm  -1.64516 15.2806 7.05906
RightHand  -0.317968 3.76492 -4.27617
LeftUpLeg  -15.414 14.7494 -2.87437
LeftLeg  28.7318 -4.53636 -2.35008
LeftFoot  -8.79721 0.109126 -2.5555
LeftToes  -4.03379e-008 1.61488e-010 -5.81581e-011
